<svg width="20" height="20" viewBox="0 0 20 20" fill="none" xmlns="http://www.w3.org/2000/svg">
<path d="M19.9994 2.5C19.9994 2.76522 19.8941 3.01957 19.7065 3.20711C19.519 3.39464 19.2646 3.5 18.9994 3.5H9.99943C9.73421 3.5 9.47986 3.39464 9.29232 3.20711C9.10479 3.01957 8.99943 2.76522 8.99943 2.5C8.99943 2.23478 9.10479 1.98043 9.29232 1.79289C9.47986 1.60536 9.73421 1.5 9.99943 1.5H18.9994C19.2646 1.5 19.519 1.60536 19.7065 1.79289C19.8941 1.98043 19.9994 2.23478 19.9994 2.5ZM18.9994 6.5H11.9994C11.7342 6.5 11.4799 6.60536 11.2923 6.79289C11.1048 6.98043 10.9994 7.23478 10.9994 7.5C10.9994 7.76522 11.1048 8.01957 11.2923 8.20711C11.4799 8.39464 11.7342 8.5 11.9994 8.5H18.9994C19.2646 8.5 19.519 8.39464 19.7065 8.20711C19.8941 8.01957 19.9994 7.76522 19.9994 7.5C19.9994 7.23478 19.8941 6.98043 19.7065 6.79289C19.519 6.60536 19.2646 6.5 18.9994 6.5ZM18.9994 11.5H13.9994C13.7342 11.5 13.4799 11.6054 13.2923 11.7929C13.1048 11.9804 12.9994 12.2348 12.9994 12.5C12.9994 12.7652 13.1048 13.0196 13.2923 13.2071C13.4799 13.3946 13.7342 13.5 13.9994 13.5H18.9994C19.2646 13.5 19.519 13.3946 19.7065 13.2071C19.8941 13.0196 19.9994 12.7652 19.9994 12.5C19.9994 12.2348 19.8941 11.9804 19.7065 11.7929C19.519 11.6054 19.2646 11.5 18.9994 11.5ZM18.9994 16.5H15.9994C15.7342 16.5 15.4799 16.6054 15.2923 16.7929C15.1048 16.9804 14.9994 17.2348 14.9994 17.5C14.9994 17.7652 15.1048 18.0196 15.2923 18.2071C15.4799 18.3946 15.7342 18.5 15.9994 18.5H18.9994C19.2646 18.5 19.519 18.3946 19.7065 18.2071C19.8941 18.0196 19.9994 17.7652 19.9994 17.5C19.9994 17.2348 19.8941 16.9804 19.7065 16.7929C19.519 16.6054 19.2646 16.5 18.9994 16.5ZM3.99943 0C3.73421 0 3.47986 0.105357 3.29232 0.292893C3.10479 0.48043 2.99943 0.734784 2.99943 1V16.586L1.70643 15.293C1.51783 15.1108 1.26523 15.01 1.00303 15.0123C0.740832 15.0146 0.49002 15.1198 0.304612 15.3052C0.119204 15.4906 0.014035 15.7414 0.0117566 16.0036C0.00947813 16.2658 0.110272 16.5184 0.29243 16.707L3.29243 19.707C3.38532 19.8001 3.49567 19.874 3.61716 19.9244C3.73865 19.9748 3.8689 20.0008 4.00043 20.0008C4.13196 20.0008 4.26221 19.9748 4.3837 19.9244C4.50519 19.874 4.61554 19.8001 4.70843 19.707L7.70843 16.707C7.89059 16.5184 7.99138 16.2658 7.9891 16.0036C7.98682 15.7414 7.88166 15.4906 7.69625 15.3052C7.51084 15.1198 7.26003 15.0146 6.99783 15.0123C6.73563 15.01 6.48303 15.1108 6.29443 15.293L4.99943 16.586V1C4.99943 0.734784 4.89407 0.48043 4.70654 0.292893C4.519 0.105357 4.26465 0 3.99943 0Z" fill="#00C7BE"/>
</svg>
